<svg
  xmlns="http://www.w3.org/2000/svg"
  viewBox="0 0 240 160"
  fill="none"
>
  <circle cx="132" cy="42" r="38" fill="#F3922B" />
  <path
    d="M18 118L54 80L82 104L120 30L164 102L186 84L222 118H18Z"
    fill="#9CA470"
    stroke="#FFF7EA"
    stroke-linecap="round"
    stroke-linejoin="round"
    stroke-width="8"
  />
  <path
    d="M113 118L132 84L153 118H113Z"
    fill="#5B3416"
    stroke="#FFF7EA"
    stroke-linecap="round"
    stroke-linejoin="round"
    stroke-width="6"
  />
  <path d="M56 106L68 82L75 98L64 108Z" fill="#FFF7EA" />
  <path d="M96 76L114 46L120 71L107 86Z" fill="#FFF7EA" />
  <path d="M132 91L147 68L156 88L144 101Z" fill="#FFF7EA" />
  <path d="M184 102L195 89L202 102L192 108Z" fill="#FFF7EA" />
  <path
    d="M18 124C54 119 93 118 126 121C161 124 193 124 222 127"
    stroke="#5B3416"
    stroke-linecap="round"
    stroke-width="6"
  />
  <path
    d="M38 136C73 130 109 130 146 134"
    stroke="#9CA470"
    stroke-linecap="round"
    stroke-width="5"
  />
</svg>
